<mxfile host="Electron" agent="Mozilla/5.0 (X11; Linux x86_64) AppleWebKit/537.36 (KHTML, like Gecko) draw.io/27.0.9 Chrome/134.0.6998.205 Electron/35.7.2 Safari/537.36" version="27.0.9">
  <diagram name="Page-1" id="gu77T5XsA-5Ertn5vvbw">
    <mxGraphModel dx="837" dy="836" grid="1" gridSize="10" guides="1" tooltips="1" connect="1" arrows="1" fold="1" page="1" pageScale="1" pageWidth="850" pageHeight="1100" math="0" shadow="0">
      <root>
        <mxCell id="0" />
        <mxCell id="1" parent="0" />
        <mxCell id="mYAJtaAo5jHIqQ0BVKnQ-19" value="&lt;div&gt;&lt;font style=&quot;font-size: 20px;&quot;&gt;DLK Hetzner&lt;/font&gt;&lt;/div&gt;&lt;div&gt;&lt;font style=&quot;font-size: 20px;&quot;&gt;Setup&lt;/font&gt;&lt;/div&gt;" style="shape=umlFrame;whiteSpace=wrap;html=1;pointerEvents=0;width=140;height=60;" parent="1" vertex="1">
          <mxGeometry x="40" y="200" width="760" height="400" as="geometry" />
        </mxCell>
        <mxCell id="mYAJtaAo5jHIqQ0BVKnQ-25" value="baltic-corridor-eu-lv21" style="verticalAlign=top;align=left;spacingTop=8;spacingLeft=2;spacingRight=12;shape=cube;size=10;direction=south;fontStyle=4;html=1;whiteSpace=wrap;" parent="1" vertex="1">
          <mxGeometry x="60" y="470" width="180" height="120" as="geometry" />
        </mxCell>
        <mxCell id="mYAJtaAo5jHIqQ0BVKnQ-26" value="baltic-corridor-eu-ee21" style="verticalAlign=top;align=left;spacingTop=8;spacingLeft=2;spacingRight=12;shape=cube;size=10;direction=south;fontStyle=4;html=1;whiteSpace=wrap;" parent="1" vertex="1">
          <mxGeometry x="60" y="300" width="180" height="120" as="geometry" />
        </mxCell>
        <mxCell id="mYAJtaAo5jHIqQ0BVKnQ-37" style="edgeStyle=orthogonalEdgeStyle;rounded=0;orthogonalLoop=1;jettySize=auto;html=1;" parent="1" source="mYAJtaAo5jHIqQ0BVKnQ-28" target="mYAJtaAo5jHIqQ0BVKnQ-27" edge="1">
          <mxGeometry relative="1" as="geometry" />
        </mxCell>
        <mxCell id="mYAJtaAo5jHIqQ0BVKnQ-28" value="testbed-eu-ee11" style="verticalAlign=top;align=left;spacingTop=8;spacingLeft=2;spacingRight=12;shape=cube;size=10;direction=south;fontStyle=4;html=1;whiteSpace=wrap;" parent="1" vertex="1">
          <mxGeometry x="600" y="300" width="180" height="120" as="geometry" />
        </mxCell>
        <mxCell id="mYAJtaAo5jHIqQ0BVKnQ-53" style="edgeStyle=orthogonalEdgeStyle;rounded=0;orthogonalLoop=1;jettySize=auto;html=1;entryX=0.5;entryY=0;entryDx=0;entryDy=0;exitX=0;exitY=0;exitDx=120;exitDy=95;exitPerimeter=0;" parent="1" source="mYAJtaAo5jHIqQ0BVKnQ-29" target="mYAJtaAo5jHIqQ0BVKnQ-46" edge="1">
          <mxGeometry relative="1" as="geometry" />
        </mxCell>
        <mxCell id="mYAJtaAo5jHIqQ0BVKnQ-29" value="16GB-estonia-gate-eu-ee12" style="verticalAlign=top;align=left;spacingTop=8;spacingLeft=2;spacingRight=12;shape=cube;size=10;direction=south;fontStyle=4;html=1;whiteSpace=wrap;" parent="1" vertex="1">
          <mxGeometry x="600" y="470" width="180" height="120" as="geometry" />
        </mxCell>
        <mxCell id="mYAJtaAo5jHIqQ0BVKnQ-30" value="" style="group" parent="1" vertex="1" connectable="0">
          <mxGeometry x="380" y="220" width="180" height="120" as="geometry" />
        </mxCell>
        <mxCell id="mYAJtaAo5jHIqQ0BVKnQ-27" value="ubuntu-8gb-x-road" style="verticalAlign=top;align=left;spacingTop=8;spacingLeft=2;spacingRight=12;shape=cube;size=10;direction=south;fontStyle=4;html=1;whiteSpace=wrap;" parent="mYAJtaAo5jHIqQ0BVKnQ-30" vertex="1">
          <mxGeometry width="180" height="120" as="geometry" />
        </mxCell>
        <mxCell id="mYAJtaAo5jHIqQ0BVKnQ-17" value="" style="shape=image;verticalLabelPosition=bottom;labelBackgroundColor=default;verticalAlign=top;aspect=fixed;imageAspect=0;image=data:image/png,iVBORw0KGgoAAAANSUhEUgAAANAAAADQCAYAAAB2pO90AAAABHNCSVQICAgIfAhkiAAAIABJREFUeF7tfX+sHdWd3/y69z0/jG1cSlmLBGObtEIIRSlCAf96bEk2gQChi0mqFdImBT+TNM2PbStVVeRnRf2n6mbV7kJsp1G63WoRMQtLkiVZuqwf2KYRXSEUoSgb/wLSGsKy/vEg9nv33pnp5zPnnjtz5/6emTP3zrxzkbHvnZ/nc87nnO/vYxj6oxHQCGgENAIaAY2ARkAjoBHQCGgENAIaAY2ARkAjoBHQCGgENAIaAY2ARkAjoBHQCGgENAIaAY2ARkAjoBHQCGgENAIaAY2ARkAjoBHQCGgENAIaAY2ARkAjoBHQCGgENAIaAY2ARkAjoBHQCGgENAIaAY2ARkAjoBHQCGgENAIaAY2ARkAjoBHQCIyCgG/4lu/71vy8+JvfR7len9uJgMa0E5NS/UKy8E+vRnEAzM8fdjSZeiHU+bvErPNI+Msg3Ptdq49NCAKHQYzoq3xvl1/d8/ETV33+Y3+34Suz59bFXzN+fvy4/m4Y3TAilsSU2O4CxlGcup1fJhzNMjVGtkXMfqbH77v/6d/MmDPr7zQM7y58vck3jKtMw3IM37uI72+apvFS3XCf+c6Rf/wyzz887zu3z5uNMuKStk0kw+3ztwfY7Nl+6hbD8+71TeM2fP2gYVozvuHx2DuG77/qOfaPrjGu++H8grnE8yk6m6bok7TvMUnXl45AUfLMzb5xv+/Wv+6Y0zfZ1rTh+Q10JP7gP9O0DMusGCCTUXPPN0zDfLJuV7/+nYUPnIjeY5I6a5zvIgnwxW0nP1Qz/G9Yhnl/1VlrgTTgUR2IesAS/5kOcHUM11syGt6lVx2/8o3Hjm18iu9eRlxLRaBoB+3Zceq/WEb1X7Mzl9330bVGDauN0IV8sMf0sUJhPQo+jjPlrDGWGufetXzzc/uPbv5hGTs7CQED3RAwcfV4eMfxe7CGfHe6csX65cZ7uF0jXKl9CyuM7xFRH2zC39Upe7XhYsJq+LVvfvvIpt/j88uGa2kIxI7G/CfEtp0nvj1trX9oqX4OnenV0PvVfg3ldbi+UbFnqjX3ImZQa9eBI5ueLFtnJyGQxAAT0gOe5z0BjIy6e7EGzPoaXoKpyfcxaVnV6co6Y7l+7uCBo1vmgp8jfZXknSbpmp7WqUl6yaHepbmYPLz11L+ZMtc9tFw752FGbGDm7Ese2aH4m+SpOVaVpDtE8W9+3vQ4gIZ6fglPapFnqyCPDWyIEbEaZLXkhBVgb3qNS5jIqs6a3Y9sO/41wrRvvjxglWJwsKMpYsz9szduAGn21d1fG4YFccI32qxwg7oNnV71/OUGB4rfqB+a235qRZJImKlp3je9YOUxvSeICbEhRqHoOwhR3Mk3HYgGjQZ0Is809u2+9fQ/4X1prBl0dRGO95NsivD+wTtKkeDhrSe/NV1Zs4dGAXZc0gZw5bLMKceF9AfP62f2H7v+eytFnGvTeWb/9rNmw3mceqRv1IEpJyQu9aMMG3E+9M9G1V7r1N0Lf7T/yJYvJe2bSbuu8CtQsPpAh9k9e+ZK0/I/xZkOInaKdolZ0/NrwUoEOfCJlbQSUbwKDAazJ0Ae+3HbqkTIw+E7Cnnaz3d92O98487dd5+5kkfowJ40Qoz6PikG2qiPUnT+QtOyZi19xPStazysGi3jWqJHigHC2bYlzq0QnSiq88ATBvJQbKs1V55EYIYXeablusvoGnOTd+HiTTywM+UtJ+Hy4hOoiaJZs7Y4Nnw9gc01G2gpBq4EnYhim4gRjOs8GZEH3eFjdqN1hlY8y7c2sYdeMGYDq2mRP4Un0M5ZAb9lNdbTzQMHjwcSZdauNhJhJdqz9fgDZbLOtes8Jz7ref4TdDCHK0/TvJnFKIdhxzRtOhuCMKq9e7O46XjvkdlAG1czXlgQT/Z9u5ZhV0eaI3UiYZ0rm07UrvNQbEur8/QZCXRg0+RjlCdUqvAEkt3lG9YZz2dICS0IWcZcSZ0oIs6VRCdSqvPEeMTJjZJBEPZTqb3Nw/v29SFbQQ6VhkC27b0GK88SRYR0RoTePVcWnahN56GTtOXnyU7niaNIS6kN0bDh1S469szPeHynsVD48Vf4BuxdwMSGz2ML170KTfhVB0GjBuY50YHZC3VF14k6dB5T6jzLET9PfPin/w7LOAK00TeG/8pjz1/zGu+ojQjpcU19B85s0p8AunxXxItKM1xG5ri2tyy2TtRb55GO5+wxQ59QesP8hnnNNP+YfcZIBBpjUg+AMd8ge7TG0CDOquwUJnOtf/v0kap9+S3LjQtBzNbonvPhGxCNWEDQ5MQHoLbFtuUgtkWwryHavVrzFn/yG7/5y+3zyCkqS35Q4UU4Dne5Ch06ZNZsuzoH8lx0rFXMjASJ1M0RcXFuUiMWxqHziGkowL4GnadaaywuWv7UHMnD1acsyXWlIBB7iR3DGfaxhWtedQz7t5HMVbOtKUQDIyFF4SdOoknzE/XWeaTBIHs9MWLFQXT7dLWBCG7fs3Z968gHfiqyWrUZW+GQTH5r6eB87Oh1PzYt576Gu1SzzFWY7fIg0WTGzvXWeWSketYrNAkJmQCYIwu42vCXlzCh3XvwpU3PcYKTKeHJe3myrizNCiRhlSQ68OLGZy27ch9Si0GiaQYtUidS9pnE2Lk8/TwhsEJsI+bE3vGt+zih0dBTBqNBfABlPf3E7z+276LDbm/M7Xj9TsOvP8MO9fylVGkOwzRmEgwLUbFNZpIywgCO5mwCQ/sDIcQ2+OQc3wzIEy1G0v/S4h2dCAKFYe2z3t55gAgpgF5qOtroK0g6c8mOI4l8r/E0daKQRELUUNFl48wnius8jKpmbFvyfJ6REMqUPFxB5RgI4uYwWimSit+E3jvS2yk4eawEGraEFImQlEhREnlu/WnHXgUSXVK4EkkdwEBSXjVIysvTxC3FNpHPk3FKQtcBGOo81Ddd6jxtYpsog9X10h4/SuIMoy8NO4Z6PCr1z2MhEGdJziRyZdlz24mrTMu8CbXFtri+tw6WLdQy8M84jvWzq2Zff40WNrY0KVhRca5zJUqNYc8btIlzTmXXgYVrlRYqyd/P02p6YPF0veUaDQahzjM6eaJ9zH8//vyJm2zbvgEhdFcjJcKxTQvpxt4Je8b/6f7ntrzDN2C7KbnQndGzMxQdyJ1AspPZnrntb9xgGPUvgTB3wi/wQcdCrggCdjmnMeiQsxkqJL1iG/af/CN7439DkT6YqqmMjt4xE0EiRc7WNp1HxrYxJaGVhq1o9IjbZia2yT6ah0P8/7116iHELjyIsfFh1PWbtqDDcbB6iGaAWRxivv+6YXvPVqzL/vCPFjb8nK8SHVtKWxy5ea4EijZwz84T/85zjb1TztoZijksxIc5BNX5RBwb6kxhtnEMOESDAPia997LeNlHDh65/pWkQHXqRNMRca6YOlGnzmM2axjQz8PwHLXtsiG2oe5baoOB7NO5rSdvBlO+VbEvu5lrCvx5QW05G//kODB8mykRlo24OttklaAL7yNbb++Bo5u/OQ4S5UagaOjGbtRtmzLXPkRwmLgVEBopv0HWYvPDbg/SEkgoz7KqlcutmrsIsOxdB1pm0dFXok6diCTKwzqnRieSA29sOg8c1pjmUoltLfIExh73UNW5fKZef88LgoIZQ4f/yXHBv00f4wLJefw39UwGECPSIaw7l2MZ4dz8QDJ0Y27H8T9g0cNafRHJj8IbTh9KlDwBSPhD4IJZFF+W6hdqmO1W+6hjTauaCAkZvSgFFVOKCqGfaHk8fqIMSmbJgbcHYhutbZnWMIiO2LZ/B3NugFng50lNHorkSCXfdvJTqCX2DMgwAzLQ8hKUxIqThw/nWAnGTFC3otZYaiwaU5Urds9tP/n7PJ5nmFAuBKIyyIbNzZ663zZmvrJUPwt7wfB12wgii/TJ8BwaAkgiQYbR07dF2I8gESMWqPzmHfYDWT5x3TkxsTTrtjV1HuoImRUAYWf1/gQ6T9RgwFU9jV5K8oAUT7OUGPsYj0bhRm+osUkSWYh6WK6f52r0td3bT3+ar8536t2E7I4oF+Gk6Db/u6en3zrh/R8EFt7Y8H6doMZYS5ZvWXw4+LmSJDUsFFEn6tR5pJ9Hpc4TxZ7k4cojrG0Sw1GHZGv13PYGyFMDedI5ukEkRHyvRsT3+69s2Gxvnf/v1y0l1ZVHactQLB/lhvFz990uyk69fdy/B5rMjUHV0GZuvBDU4lf0+t7ieqCzcMWQK1EacY4DgCQUsXOXIrFz6uYWEYCaLHauM7YNVVQDa5uqfB5BHhnbFvh5IqbqYXw18R4NycOVp56aPLw/rLdODZsI2ObUR86cND4Rf6aq78oJRNMzX963vbsw6Cna0pqC5yYfoGIAkkTTLRKxI5Ms25060Zhi54bQiSZC50ntJA11Him2ZWHEaYp8EC9XYcZ2uRdUy8+oijy8r1ICscODhsCujyX2Rt93M2oLKBjUbLvUthJlqxNN554K0SufqKvO01Z6KiNYu99G6Dx+vbXyZKnztIdWdX+BYX/l9jXc/8k1/JvmZ4Xe3c0IMez9hjlPKYFk0Yh3fv36eohtVwYpvYFfIu2naaMDiaQBIBTnku2oIMVAKc6JKO5oKkQW793ZbjERNAvaB4aFzl0homIbC4B0xrZ13jfdL6KtrZSEIKo6XWCoWD1vb0QNBu0rT3KJJNpWbqJmedZVZy5/S2zhqabbWo9USiDDmA0eVPMrdOg1nXrpuja8up9OxJz70a0wUgzMVyeSq6kkUbgrBK2X/EMzb9TPEwaGEo1sBl6Ia6jztGLbMtV5hLUtC7EtPpLEtEoV20MQ4nIuVjilBHrBWAja6J/3L6Kf8UfN49TpRFYO+USCAPGViJmt3KuVf/J2kqLLQj+PUp0n2+UBUxEDdzGnWO/bf7+Ge+Aq/2Q9fbW9cDT6YG7bicMV+/LZureoIBI6OmvSwbdcC03cwl8yKpKdsXPRsJ9R7zb8+SIAlW3gTgbevY49xbjAZ/L282CXiwxM1YcD/1B3sU302fDI9Duzda8aNvJC/YX3/+rg0U0f4xXUgVQGmapZEpptpUdYGhIwN/xEhBcwNCPrT6gTdZq4w7JXozw1rhNxQLWnh2ffiqC7mwXtuScP8DsEIh0S5JF120ZpxcjnwseGNOxMyMOJi+Shn6eb2Jbl3C3uhcmHZGE6+Ut5kIfPUEqgoPua248glODpurvYwPKK0ruoE5b5JyoKZe8nsoIaC6r9RLINDFNpsBA7LIF2FSsQdttLvmFYf6jFRKDWzzOlMBu4+f4ImjSxWfQSypn5hv0M27xvXn3l0yyngf79hKNzO048UbXWPbDUOI9NalmzTd1HiEJI8MJsmjZiIRTnTiLY0Q8yWykm4u3VtoHBtBgf8ThBBahlls8jsVIvtkkUhPgGdaG2qrq+uly78D8PHNv0II+qFt/4DPUrEB5CUIOHeZV/j92az1ZRJwzNVljko7ufSMTApYmd2xxELAjTeQ5+IgbTRiLU5ZDJ+O8c/TxZz9cheaoI40E83DtmZdXXiQ+tsCp1H9kHWbeoZ9/GZvG/kJvWCtFEANHz4kQHWvdUEjvnIaCVQZVq08MTNXyUiwKdJ9vYtjAwVIWpOmyc6F9pdMHOhJ5tWHeJIia+Q+vlKEAkPTeXFYgvJ2f/Ay9iFkdmZrCBL6JvCUD2vgw+sTU3KImd69SJ+EwhjyftjHyuE+8odB6IopnHtnUzGGTdsih5oF+5IA/yxEQqOWvP5UMetio3AvFhrZptRzY92UkinqFmAEb9RCxxFaZCJHO20rIo8onifqLcFvSEIzJclUU+D2oYFMjPEzZaFG7kBEwDC1L+dz12bONTeURfx4EfS4/LhjL2C76OQ3mJc6GPpbh+ongHJvguahhkYqo+nJOfp72Voh9JngZWHmts5OFbjYVAfPC4SIRHBzpRA1Y0imFZ5RMVQSeKWiazy+cZh84jyAOn2a4DxzaPZeWRlB4bgQaTqH3WyfJbt5UoaWJYNCmvs+5cS2TK8vVHvFe7sp1F6alWWkUkkzQ/gwF1njr9iGMnDzsiVx0o3vPtOlElZljg2ep1ovb08LLpRF10npR124Q1VdQw6IwwUNNfFJRCsU3oPONeeeRYHusKJF9iXOJct5UoqSLaGTsXLSMcnzpy/Z6TzqOuTZOk88RbOREE4kt1J1F0Dxtlr6pQJxovibTOEx/u2X8fqwgXbU53E3cVfiJDkZ+ITw9EjsBP5GRcY0H4ieIBqNl3YOcdhRgVrq5hVDVXyfQ1DMbh54HOMwEGg06sx6wDxV+ou05EEskNsrKWscWq1iufSIYgxd+z33eZVt7dT9TvyiyO9dZ50qVh99J5snjnbveYXJ0n/rbK5KL4g0b53l2cYzi/qlK1nZaq7POJchPnctJ5WmQdpWuHOneSdZ54AyaSQHzJ7iRSrxNJ0Ue9n0jJACxwbJsYmhTZWa6XTtJJFduiJJpYArWT6A1ELNRjEQvxuSC7792sc5PrJ4quniJ9I+0WI2P38yA8B+rpRPh5Bo2qiTEidHvRUCe6FrFz2k/UDaNmMEmQLRuPqmYAb/drev/a38/T+7p0R2I6DzcQGHOEwbDtmegVSDaiuzgndaJhmzrKeXnoRJmlQjT35wl3hku6WvZfeVSInFGcJyO2bZRRwnMLQSC+aHcSFV0nSrpnazjwgv15MgkMbRarH1d4TkF0njjBJlqEi75sfxO3qnlAZraq8hNxa5VV3KYD2bmjtAFbfwSlp9rJU1g/T6DzjD8wNE6OYb4XhkBiFRJVfg4cyUsnUu0nYnr4Uq3izLC2AupEDC620kxTrjEtvtg6D61tzXyeAuk8cVKNMu3Frx3b9+7inEqdSDS1m3VOvsuoYMjrdv/mqY/7df+JaXvtuuXG+SBoEqUQMLGha7A0sRp/K6gWu/XRFzZducJAYZazOPyZbx/d/FfF0XmiOBZT54n3c6FWIPny3cN+ZHo4z6KOkP2Hg1fW4mb+j9gpL2ndObGaHvzrTc+ZtnVrzT3/YyYWVuw1DvKVUAWM1b9QZhPLEkpbWfxNHKsal9zzz1Z841aSh0TMPjxHlcGA84HfXHmEn2dcmaRZjY5CrkAhkYTiy4Ls+fiJelvn0q4CbBOLEGLX8gexMexHMQlcDXEtKJsFTayGfUHPYHPQlw3L+WOGCfH3tKtf99JTWQ2t6H3i1rbi+HkGoVFoAkUHUXcSqZhJBaRiJs2q7lx7+eHddy9eab53fqPdcK/k01zfe9dfv+r1gz/Y8K7s0OTkORxLw+bOcJcUlFtuH3rhyoN8HhYAGVMNg0GEGPV44QnUTqK8aixESZRNLW7ekTsxDKooM8w5vQZB/n6eKE7l0Hni2JaCQL1JpNJP1C7ONVykLtiVVDUWZOdwoMuSyK0OmzVQZxyVShN+JoE8RTVV94O8NARqJ9E4dSITJNr8bFKdqF9nJT3WnzxJ79rvuvLqPPFWl4pAg0mkXieiPmGYlXtFtZ9kW6vEOynN907yUORcUl/Xu2VtK5fOE++LQpqx442Ifm8PQO1WAZUkyv4jkvIuwUQ77aTdbjKrt+skD/QQEjwoiq8GB757ez5PeQwG3fqldCuQbKQcPO3FG/PSiUSIDVw5dx98cdNz4xDnWu3f8bd3wjH7DIndvqFv1l0fF9uKkc/TjRSj/JY1iqM8W/m5IYny1YnQsJqDUBsYFs4ajrn14MJ1P09jPRsVqEi7b4Bf6X/b1qo1dexthM5WtB1LnDzl8fMMwr7UBGLj+5NInU5EEk0566qMMDhwZMsn+S557FcT7fDd207+ryln7R0IEdI6zyAmJDxeOh0ojsO4dCJE4DhBbJtR+cTDO47fw/damFdfyHJ+lruhG8bu7ac/jdCgOxAzR21H6zzxgZHR99ITiDj1jp2TJbOyV6h9wyO2tYo9Y6AA+r/ge9BJylUoo77repv5BbG1h+l7DzK2zoI1TI2YITArW2xbV1D7/Ki0M/s8N/dD+eYTycFlWMFu24ht2z17JgjL2TevrumyDNee296+CmV3b+GzRWQ3n5kljbrpPFZh0rCz7IEVQyCCFhXnLN//TGuTL+5FmumnOViRluD6wXb1Gypu7YOZPqLbzRZmg18r5qVNSLm72vfd5llZr7AIcwVmzOcJSGqxhsF49ufpBkOev60oAhFYkogWsf3Hrv8ecgXuxgCowXEBSSdrEvFpzGhFbDV32vbN9Xl1bM3ms2xkumJeCLiT5eqDuxEr2Ohdv76E+nl3wWn8FHWvNKFGeWGT9XNWHIEI4AuGEaw4nmMFCnepP0FCnqqPCSC9AMOds6qeMdn3XXEEkmbth2dPfNZouE9bZqXKZULNbtgs12QZnu/WXNM/m9dQcF0f2apejc9WEXEQYOV7sJLY00iSfWbP1uMP0EBCbPNq46Q8Z8U0mNavVmjLjlMPwFb1OK1UcDSqs4xhdNnIibNM44yxbv2byjsdEdt8hnOZewqC1tsQHZU9knj6wA6ZsoZnmk8w4kPqmMoeOoE3Vrm+T0xzA9MxdAHTRJH0race8Ez/CQtltlEMR3UiGZypa6vLjcU/PXh08+8QkLycqXu2nzrk2JfdX3cX0UYDYlbWXd1uiaMxgcUvWfBFTlQTMwAUvsjKWIGa5KHY5pneE7ZVwUDGytMqVp89wsIoYVbr7kV6Tx/nE2i8aFbVyf6BzTvyGfynabp/EpjQ0UaY0fFL9pY4YSQxEWO3jJWIknD90EpbibKelpQNjKQ3joptnkfyVKGTqAwqbb3p2EN55raf/MuqvfbjakN55EokisI3QFrUQsFKtGlFrESlXYHiOk8neYJ5Oikv+16HIcUIhOqye+Gs409/mSfnsfrIl5LKvG9bX15yL5xnYCvfqe9LJz4oMKSYyJXICVYif8WsRGpGUOLOyObCNp0HBgNUU2vqPBTbqA+o+IiZGHdu7c8D0emuNHXb0rylXHl333bq46jX+AMo+8FOfEJsTXPn/tfK0J7ASQ1nNf1tZdaJyrkCRXWeQGyTOg/Jk7UuIAeU2GHAtqarDR+F3rEbdpq6bf2H6eCj0iJ28CXUnbOc+4KaDSgFHBRuVPah4zjUiVaCda50BOJsF1jbIqbqUOfhyFG26IZbjPjWfY8dve7H4555W6FLqCPHgicsQq+WRMJYIUhUCwwLnu+VWpxTNpqUTXI9bkyxjYGaHDQkD8U2rjzt5OlxcfqfW2KbiZXnAMgzjizUXs2QRGYlVaabj0Ocg1O3lIaFUhCot86j0s8T13ku1RzDuZcrTxryyImgGxn2YoJIagaX7zROEpVRJyoHgXwhttHPIyMM8jBVC4UZVW782pLTEtsOI6hy9J3hSBwm3A1TWHF2Hs7/BBHkIYlO3um53tOOzU2+VBoWpIlb1MMWztZyrUSFJ9A4/TwUhVhsPu2epPF6CcznMeyLG6FLBBHcVdM5W3crr+9/6ep35MoUv6bbitXtN7GF4+0NrkQskO/A6KG2zJUkkfATlY1EhSXQYJ2nJWJ1G0dpf8tM54mKe0zDRh7P78CPcgvsIBuQDh6Y3EXUhHUG8Ug/8Rz7cRQp+XP+nlRU1DpR2u4Pry8kgXrrPNLPo4I8MZ2Hpuqm2JZ2IO+ZPXGj1zD/AEaPOxxrlcFZWiTiiYQ4BoUyKJVWrYZ3yXCNxnNmxf7qgeev/VlSS5/WibIhUSHN2LS20VQdxLZ19fOomBcifh7uSRrRedLszzO37fQn4Jk5NuWsuYPEWW5cqLn+xYaBhgnKYtc6/NtFQcTgGM6ZstZ8HNFIx76Aa5NGQPOdSSJWUEU6YdNPNJ2Tn6hp4i5BFHfhCBTVeToNBpxVVJAnmK06tpKX+sSoc1l0K3nDdH9g26vWkBzNrNhqEACKnBu2hMVJ+O9mBEWV20Aytg0r1bq64T4jN/kiGUZ9D5KI78Ja3sJPJPZsZVtHvddw54sWibAfQSLkLR2am32jsKkQykbbcIAOf9ZgnWf4eyU4MzOdR5IuurlVA4YIdMSoRQ9rjHqgAYCRBqIWdzILYFQnMvx6rIppArSGvCQa9lNUP1EhCFQ6nQc70flmDdmw0XK7Q466yGktMzoJ2CJRsoL2nToRTdxy4y0VOqVoSNFj5wohwo1d54kYDLLZSr6emjwcfiJkZgkhM9PV9oL2ycS5dp3oEkRWqROpmmcxNQaxc8XViSaeQBOh86R0kkZ1HugzIA93SZAOTM7uST9yAF5ianXVc+vNjY+FgWDUu3bXiaapW2mdqAeYqqaWHo8b/udOnSffZDg6GGEyhm7ipIpt66bzZOv9l45Kevvj202m14l07Fz/MTuRBNI6T/9O6zwa+qhkoGjaTb60TtSJcrdfJlKE66/zsBkqeC/9PFMinycjP4+wtmWj83TrQPFbC48gto0pC1nrRLT25acTiRoLRcgnmjgCDdZ5eg+jlEeafh7Etk2szjOohTGdyMtOJwqS8mDtIznxFop1otCwMOl+IhVT+aBe7np8nDoPTak2BgYTztLm86jXebrCF/lR60SDEMry+EQQSOs8WXYp79VOIop12etE0RoLK9dPNBEi3Hh1nmYNg0LpPIMIJ+ZF6SdSoROJGgt5+YkmVycaO4HGq/OILd/V6jyDBrvK43GdqKHAT7SydaKxiXCDdR51A6ul8yCTFAGc96WpYTB+nWc4nLqH/ST1E4nrxpkePimxc2MhkNZ5hhv02Z2Vh04UjZ3L7s3jd5q02LmxiHD56zzhAKKjMajbViqdJz7M4t85T0pxTviJwrAf0+MqGr9i0Pd4PpHwE628unO5E2g8Ok+w0Obk5xk09MZ1PEqiS42goAhqIoh8ovSxc/QTSRIRazWtjLZhMvKJchXhkOsvih4GW4yMI7atDH6ebIamKp1opeUT5UYgufI8vOP4PdieFklbDoQKWbdNhR+hdU+RDJdlDYNIPg+r8mBIj5oMlw0LEt8lxEZWFso+nyhg/XRDAAAOOUlEQVRfPxF3hbAN7+79Rz/0w6QVi5LAmYsIJ8P5vzD7yy3Ynva7EB9QMbReCwudZ83jqM6j1s9TPPJwmAhRiO9OJ2v2+UTxWtxZ92841DmGQJ5a1Z5BsTzru49se2MTa+slSXFPQiB1LevyNnPbjx+q2lfcv4ScfjxY9azdSnlOW7dtXKbqoHgi5gI1+7eyg9qtc0GsWzOzNXmlocNBYcm8TdxoTG26ckV1qX4WuwFen9tugMpXIG5/zq56aOvpj6L45j+vuYvYsU357tiB2OZCbGNsmyy3m6Ri6FjJg63kDctCcREQSclHzJ8yYsGBhVJGccvkulEfS4yJmaj2Q8MCA1BVV/sJSh472EoT1ZqMB/7V7Js38733zS8oH9/KH2A0N761LO++irMatQGxvTMqzYzaMYPP52wafNp0nnROUtYXuL2xJ9B5vCCTlAMiFD0Hv9VoZ4g2YBA0TNNBJR63hqo8S5ZVgfElj21JKM6FJBJkGH3nbV4XpodLEkVN3K2+Gg2ePmcHvkWj0aja6xy3Xr+bp+6dn1U08YQvomAghzen1Y11y/gLq20KicFDXeesP2XReUROEokK8mCW8X4bW2HvCjarwm8kVtbIifsJnUhdjQXqRKyxIEmU/QiQuIBIhmsat/E7V25BLDWo8a5KCbRvn1hCv3rrL9ejXdegaYpaEnRIICrQF1G82Da58ogi7J5X8yC67aJFaf/RzT/krgaCRFWFhQ+jJBI1FsKkvLR+IrE/kXo/kUHjFJnzwS998u/XBIMt+8WubQwrJdBOyG/8vLfOnMHsOQPpre3h6b+0i20Ur4qp84QrD5ybnu3bu6BDPEUxiH+4TSK3kA9XIlXiXLtOFBXnstOJlmDcmaqqEEmBIiUdkMZb7ZqLM+nH1+A7KCWQYSwEb1A16xA9UEc001RsIbbh9qHOk3JzK+Gratd5si0A0r1DZHwXwmtAHmvXY8c2PsV34aAVA9e3Dhy59kkGUKonEd8xDPspkk7UFOQNFHKtTbnrFUVDtPehUgK9YAgl7qrLNp7F3PYOBgCenoX8m5/Oo85gIDoiSh780iKP1B15VmurRmwd304irRO1D2foJCjEj/+9c8+taxaDY1kMt/hDIt+VEkgOgvlDJuo+G68JAvV5m6EPlU3naVC23XXg2OZg5YmSR0LSTiIpzkV1oqyF/bx0ouzqzkF6Qx0SeE1871W5UZk6F4DoGaUE4iOkHwjq3Y8ofrCwuGhUqg5v+nnqBfXzxHUe7NrWhzydJKI4F9eJVEy16nUiEQmRXidqEoW1/AzfsX8UjD1MRhI7VX8rf8Dew0ZgObh6w5Y/h2PzpxX7MiyrcAWNvLa2GwxESkLaZLhOP884dZ5uK0+848OVKH+diEaarHUi1mrodLaOPrliN/BG1bkcO8HU/mbDP9z4bBw3Vd+VE4j7+DC4j2Kc4zn74N8I6iGP7tMQYlvR83laOg+sbejUrjrPoM4erBONPgD7P1OIczinGTsXdbayf9PmE8nYOSnOjbaaCkwtbrcJ67/3DY61YMw1fZD925bu6Ghvmu5ZwdUPbz/5+6ucK762XDsHXwc2kQKZhrxtzbFXVemQK15sW2j0COpikzy+P5TY1g8bqS/NbX/jft+vH+IOdp6/3BCYimf2u370Y9F2tJcRzip2DvseBSWV8W5DxUoGE7FvWVOVtdZy49x/PnBky78dvV3Jr8iNQDIXiK86t+3EgaqzbnfDuxh0OAEQTTAh74kwH6sZSEmS8XjVWWvVGucX/aq16+Bfb3oubYdF9+fJVWwL/DyhqTrtLNmfRMkHRu8re5OolwGk973EEXkdd9xzTRcBx2tX1xqLXiDqexgbGKUcBDwbwYGcfIQGgOOckLgtZt07/9j+F6//Is+JjrVBz057XLkIJ1+QopxU6g4c3TK37F74Kra1eJ+xS5g/8B4molYCtEToDwAzLdtyrMsd6E3Wsnv+JfywneRhsCL9I6M2XnTU5Ph50pKH7R+sE6kR57jKdepEYR+P0jeyDQz6tV17e71x4ScVezX6frWDeFqMi5A8HCOIGMXImLI4dqDzLGJ3vy9L8rCPOdZGeX6ac3NbgeRLRmepL277vx+qm0tfAh6fQojpRohomGxgx4cjz4Oz3fXqF8GnVy3f+c5n7rj2f9A0mXaWy2/lUSO29erscCU6BXHOa4pzTFg0aNfFZVl3dbR9q4IQKpmUl1w6ECZ8Wm5/5Z7+XdfwPof3/gg2WJ5mAibbwHAwiPHk0Ou+aXy/4vmPPnp08y+IS9Kx0QvTYX7PGtVhnkk/N6KyAUdzpviXv3VhfeXSuQ/7fu1Dvmmvw/xRwxlv25Xqa996/gM/lTeVqQVDPSRyUv4pCfmSJ8RHDMDuOtGoqA1zfm9xLjmJDgf5RPLpj2w/dZPr+zdixdtg2r6D8NCzbtU44VemXv3OX37gLM8jcfbOk175rTzy/cZCoGiH790bEqlXl7EzZhGangSg/MkjWhG1tmWp8/TCKIopRaJJIFHSFYETLHN5BuVvUdfZt0+IsYNwUXV8rASKdjrC5jr0sZ2zhiE9ykkAkB0o8nnS70k67DvEw3OGcZIOe+9hzusuzqm3zuHdAj9RENSbcs9W2U6ao19Y6NJq5JlloUN2ufNIP00EgUZ64yFPDslzEslw8W0Vh7zJSKeNR2zr9Yr5k0i8iZg8stGJerVtkn7vmPUn6eWSvosQ20xvnAYDim15rzxRvNqdrXmE/Yini6S89nyipKkQSfs/z+tKtwLlv/KI7hqXzjNosIQrUTdn66CrkxzvbVhIqhMleYu8rinVChSS5xetGga5Oklj+TyTIKNPjJ8ITlLxLqOH/eRFhiTPKc0KJK1trMhSa9RfQIWZGe44B1AQEiJmxSQA9b4mpvOAPDh3rGJb73cNfSRz2/PyE7XeBpHzq1Ah6dL7sK7tPHjk+lfyLHzYD5MsjpWCQDR70sQ9v8uvvvWrU8eq1pqb4Z0eOp5qdCA7DQZ5mqpHf19xxbjEOTy9NuWsrdbc8y//hr1l6/yCCQdvvhEDSTEbdF0pRDhZ/+utt099vmKtvrnmXqAjbqhgxEEAdR4vJnnYjnZxLm5Y6Gxp+l/E/IzJzanVFz2E5tzyq8bJz/O+C/s63Rbpn5f/HQpPIK4+dLhxRoNL9nOicAkHuapPJBmOYhuiqmUNg0nQeQa1On+dCD2EPoIrAbXuLATimA9yJZRhWYPed9KPF55A+2bFTDa34wRCgbwPQ+9B6K6M7s4SfkHKcTtJs2hRu4k7WqiENRbUSPVchbCvKl//I796/vSN/MdOQ33l0Czw6nePwhNINs407RuDIulI2Mt+DHQR2wyUnhoiDbsf+OM81t1PpKLunCAk0xFc1GwLjDu2dwPbLovOjBOHtM8uD4F882pWZKExQeaOpAUnvD4itmWcz5PdO45+p8Hi3Oj37HUFaQRLTwNlig2zbl/N8xgHWfRP4QnEeDl+fBMxulx6FKg/bWJbwXSeQQO0tzgnizdmDSgmI5T9GPReRTleeAK1Ag09E6HtSGBEVT2ZlJeuE8qj8wzCoTeJMtaJ0DVBTQzLOs93YiR10T+FJ5DsAN8zTzDRKsj/TT1plk/nGTRQVetEJra3wDtYdffXBlh0gu+jjQiDeiWP483tU4x/MP0Khv2bqJ6QgRGhnDrPoO5QqhNZvmdjZ0JMb6dWXbY+SJJ8YdALFeC4Gptlzg2XkQhzO44/WrXWfQEe72ZlmmQvUgZTdbKWi6uyTYWQq7mBvXvWOsvee//14Iubvpzm/Sbp2lKIcPvmBaS+5fwhohDeN40k5tiVo/MMGoC9dSIaFkadc7maw/pmVh30zWLFqz7K5zMebtB7FOF4KQjEDmckwsGF634O+XpvUP3Ut1GdZZTi6yxYwT2GRN02u+B+nrSDrxeJiNEo9+Zqjl2uHPjoULLa3vvo0Wt+IaoqcbeO4n9GnU4mtsVSjOMLsu7cVGX97qX6Ocx+XlB3jsd7vXzTdwQRY4aFG4P9eYoUntOrXVn8HhfnKtgNu+ZerHGf26DEVI8PMaVLDvOag81/cQ3rtm0Sdduawb89Li3Uzz0BKFQr8LLsMHY23zuoO9c4903k58PzvRodzchf7jvKeKzYHxbqQ/GxaWcdyfOObVh3afKEvd+2ElnOXXXv4rvEinWlTGDXgWeAr9Eg5sSe1VKXGuf+kyQP+yggV0k+pVmBZH9Esx53bz/9acNv7AWRPhyIENghD7MmS1eypBb+sAYdZJLGe9je3X8Sk+p/2L9w3evRe5Skn1M3Q2LyyLY3Nvlm4z8Cx/sr9ppAjxH1ziHcEVM6Ehg0iphE16+94pvWvm+/uOn7PK+MuJaOQKJDw1yT7yFH6Lm/O32P1XA/iUJ8N6J7r0JXo+PNi2DTm5bpv+wZzp8dPLLxFdHJh9vqkqUeeSW6QbQu39zWkzdDa7wPSH8UeF4DGs1ATq6BMO+CUK85fuUvrqpc+33m/sT7pESQlLspcUvPLpDp92bPXPn5j725Yf7Tp9fFWy9FwPjv+nuIQDeMvjJ7eh0x3Q1sw/2gxDXxPtBYFgwBWufinRptQjCropRswZo19tclZsSu24sEOVo43s9w0+26Iv5WShGuV0dw9pThI/SC701Y7bTX/Vfi7yQJM4J3NhvPFAUaHlYiFrrNGgGNgEZAI6AR0AhoBDQCGgGNgEZAI6AR0AhoBDQCGgGNgEZAI6AR0AhoBDQCGgGNgEZAI6AR0AhoBDQCGgGNgEZAI6AR0AhoBDQCGgGNgEZAI6AR0AhoBDQCGgGNgEZAI6AR0AhoBDQCGgGNgEZAI6AR0AhoBDQCGgGNgEZAI6AR0AhoBDQCGoGECPx/RC7WuDHVbacAAAAASUVORK5CYII=;" parent="mYAJtaAo5jHIqQ0BVKnQ-30" vertex="1">
          <mxGeometry x="110" y="10" width="58" height="58" as="geometry" />
        </mxCell>
        <mxCell id="mYAJtaAo5jHIqQ0BVKnQ-42" value="IP: 157.180.19.207" style="text;strokeColor=none;fillColor=none;align=left;verticalAlign=top;spacingLeft=4;spacingRight=4;overflow=hidden;rotatable=0;points=[[0,0.5],[1,0.5]];portConstraint=eastwest;whiteSpace=wrap;html=1;" parent="mYAJtaAo5jHIqQ0BVKnQ-30" vertex="1">
          <mxGeometry y="30" width="120" height="26" as="geometry" />
        </mxCell>
        <mxCell id="mYAJtaAo5jHIqQ0BVKnQ-35" style="edgeStyle=orthogonalEdgeStyle;rounded=0;orthogonalLoop=1;jettySize=auto;html=1;entryX=-0.021;entryY=0.555;entryDx=0;entryDy=0;entryPerimeter=0;exitX=1;exitY=0.556;exitDx=0;exitDy=0;exitPerimeter=0;" parent="1" source="mYAJtaAo5jHIqQ0BVKnQ-26" target="mYAJtaAo5jHIqQ0BVKnQ-25" edge="1">
          <mxGeometry relative="1" as="geometry" />
        </mxCell>
        <mxCell id="mYAJtaAo5jHIqQ0BVKnQ-36" style="edgeStyle=orthogonalEdgeStyle;rounded=0;orthogonalLoop=1;jettySize=auto;html=1;exitX=0;exitY=0;exitDx=0;exitDy=85;exitPerimeter=0;entryX=1;entryY=0.472;entryDx=0;entryDy=0;entryPerimeter=0;" parent="1" source="mYAJtaAo5jHIqQ0BVKnQ-25" target="mYAJtaAo5jHIqQ0BVKnQ-26" edge="1">
          <mxGeometry relative="1" as="geometry" />
        </mxCell>
        <mxCell id="mYAJtaAo5jHIqQ0BVKnQ-38" value="IP: 37.27.87.76" style="text;strokeColor=none;fillColor=none;align=left;verticalAlign=top;spacingLeft=4;spacingRight=4;overflow=hidden;rotatable=0;points=[[0,0.5],[1,0.5]];portConstraint=eastwest;whiteSpace=wrap;html=1;" parent="1" vertex="1">
          <mxGeometry x="60" y="330" width="100" height="26" as="geometry" />
        </mxCell>
        <mxCell id="mYAJtaAo5jHIqQ0BVKnQ-39" value="IP: 37.27.217.195" style="text;strokeColor=none;fillColor=none;align=left;verticalAlign=top;spacingLeft=4;spacingRight=4;overflow=hidden;rotatable=0;points=[[0,0.5],[1,0.5]];portConstraint=eastwest;whiteSpace=wrap;html=1;" parent="1" vertex="1">
          <mxGeometry x="60" y="500" width="110" height="26" as="geometry" />
        </mxCell>
        <mxCell id="mYAJtaAo5jHIqQ0BVKnQ-40" value="&lt;font&gt;IP: 138.199.215.62&lt;/font&gt;" style="text;strokeColor=none;fillColor=none;align=left;verticalAlign=top;spacingLeft=4;spacingRight=4;overflow=hidden;rotatable=0;points=[[0,0.5],[1,0.5]];portConstraint=eastwest;whiteSpace=wrap;html=1;" parent="1" vertex="1">
          <mxGeometry x="600" y="330" width="120" height="26" as="geometry" />
        </mxCell>
        <mxCell id="mYAJtaAo5jHIqQ0BVKnQ-41" value="&lt;font&gt;IP: 37.27.28.164&lt;/font&gt;" style="text;strokeColor=none;fillColor=none;align=left;verticalAlign=top;spacingLeft=4;spacingRight=4;overflow=hidden;rotatable=0;points=[[0,0.5],[1,0.5]];portConstraint=eastwest;whiteSpace=wrap;html=1;" parent="1" vertex="1">
          <mxGeometry x="600" y="500" width="100" height="26" as="geometry" />
        </mxCell>
        <mxCell id="mYAJtaAo5jHIqQ0BVKnQ-50" value="" style="group" parent="1" vertex="1" connectable="0">
          <mxGeometry x="610" y="630" width="150" height="55" as="geometry" />
        </mxCell>
        <mxCell id="mYAJtaAo5jHIqQ0BVKnQ-46" value="Ybil.io" style="html=1;whiteSpace=wrap;container=0;" parent="mYAJtaAo5jHIqQ0BVKnQ-50" vertex="1">
          <mxGeometry width="150" height="55" as="geometry" />
        </mxCell>
        <mxCell id="mYAJtaAo5jHIqQ0BVKnQ-47" value="" style="shape=image;verticalLabelPosition=bottom;labelBackgroundColor=default;verticalAlign=top;aspect=fixed;imageAspect=0;image=data:image/png,iVBORw0KGgoAAAANSUhEUgAAAQAAAADyCAYAAACiXxvAAAAABHNCSVQICAgIfAhkiAAAIABJREFUeF7tfQmcFMW9f3X39NwzO3vvwi4Ly3Isw+4iICiigFeM+f81MQgmT40+z0RRUUHikRB8HpGICmKMJuaZxETRxMTEl7xoFAkeyIpcy33IIbD33Eefr2qWxWV3ZneO7p4+qj+f2dnprvr9fvWtqm/X8asqAhj4iu37ZV2cic8ghFiTyEbHiUK8BAisG36cAh+zi3zcCoSYWWAjJiAwBGFy8gRtYwjSGgeUOUpS1jAg6ACgaD9B2o5QJutWkTBvdE24dZ2BYZUt6T/7447z4nH+zCjDNUYYvpphxQKG591RhnfE4rwtxgrWaIyjA1GWMptI0WGlOYeVZKy0KWY1UxGLmQzRJBmwmskOu43ebaXILWYb8dHdl3v3yWa0ygUTKrcvJ/PE5pvpqGPyVJZnphNifKLAhscALlwtsIESIdbtEPkImZOCVJEJCvJDYRyY3d0k7T4OTPaDFG3bCUjzJqdgWUt4b+xKFdXI95f/aV+ZwEdnxuJgciTOTAjH+ZH+EFPZHWILO4NxCy+IssDjsFBCsdsa8jjNnU4bdcRpo/daaWqrxWLauLc93PzCLVNZWRSrQKguCSC284WxDBe8SYh3n89Hjo8TYq0OFWANUAuCcgw/YrKWfQzMzjec4297kyCAPKVaDQlOywaReOy1livgW/vbrd2xsw+1hqqDUY5KK6rMgYYV28JVpY7dxS76Xbfd8qt7rqjfI7NKxcXrggCCLc96AR+/kWe65gjR42P5aJtNcSSzUEiaHALlqPqStBZvIOiCN5zb175BzHudz0KUZqJcuWYNNRlMnBsIxea2+uLTD7WFhsMKL09LTGJUKots0api+57SAut7Vhv1qyVzvS0Sq1BcnKYJoHvHszUmLvQoGzz4DT78ZYHi6EmokKCdnMk95jPKMWyFa/z310goWjWiHluzY/7xjvDCHUf8UwIR1qQaw7IwpLbS1TW60vnnQqd52b3fnnAoCxGqiKI5AjixZbnDQdGLufCR7/HB/TWiwKkCSCmNIG1lEdpd9y5hct/v8t6u6bfM42+0eDt98cf2fBm44HhX1C4lTmqQRVMkGFft/mJUmfNlPy8s/9m1TWE12JWuDZohAHHNlVSw/qzHWd+OHwjRVt0VpGQZRlAW0VTYuM7qHn6jte5GTY1Ur/hLS92RE5Fffra3+7wYy2umnCXLh3TvDSuyR5pGFzy7w7zn/tfnzdNEV071GWPEit+/wGmJCIxY8fvnl5aIQLUEgCt+/2IFgJqJAFf8gfmlBSJQJQHAUf15rG/bi3Bgzz0QVnyHoOyCpXTKH5y7mr+X71kDNKo/JjzmNx/ubL8qGuc1MZqvdAmqKXMEJtUV3vTA/AbVDe6qigDCu1YN48JtbzGdm6cAo0+Pp1FKoU9BgPY03AQHCvNSsB55bdu8zfu6XzzUFsZEPUR+QX8PMG1cSXPVMNfl910+/tgQwRV7rBoCCGxfsYJtb14AvfQ0PT2kWM6dUkQAc8kZzSZ76eWO8QsUKVhP/XFP7YE2/5pPd3dMEQ3uxpRpfnscZm5GfcnTS69pWpRpXDnC550AgjuePY/z736dCx4skyOBRpEJXY45S8mUp50N98hYsETiod9sef6jHR03BKG/vVGwlSOdY4e72ybWuK5cMr8xr+tG8koA/u0rfsKe+PBBuAgH9x0lKmWmooYdrK3qgjLvbSckEpkQs/w3W8r2+WLrPt/fNU5KuUaWBRclCec3Vfx06dVN9+cLh7wQQFfz4wUkCL3Hdm2enK+E61kvYSmJmUumzXd7f/CWFOl8fM22b6xv6XijzRezSiEPyzgdgenjS5prK0ouWvitUT6lsVGcAPw7nvsG1/HZa2pZoKM04ErpIyizaCk960VX4+JbctH5wMubf/XB1rbrGc4Yzjy5YJVL3KoSe2j62OLL7ps/8f1c5GQaV1EC8G958hm2ff0CUWAV1ZspKHoKT3vqDzCOkedk2iWAa+9rWg771rV84R+hJzzUnBbUJZjVWPH8w9c03aaUnYpURDhSTAQ2/ehjpnPTdKUShvV8hQBlqwyRnilzPA23NqeDyxN/3DH5o5a2dcc6o6pYRp2OzXoKA2cJPnz61qnnQtcv2edYZCeA9vU/ddHmjs2sb2etnjJJa2mhLIWMqeTsK4caF0D9/bVb2t7sCjG01tKoJ3ubRhXus5LFE1fdMSYuZ7pkHX33t6woMpFH9uPKL2cWpiebj3eb2da1fwq2rLw9VYxHX932/b83H38LV/5UCCl3f8vB7roQ175v6e93l8ipVbYWQGDns2O5rm2fan2dvpzg50M2QZpEy7A5D7km3PlIX/1Lf7v58Xc+b13M8oJsZSIf6dW6TuhG7DtjnOfs++c27pIjLbJkNnLuYdqb/1eId+BpIzlyLUeZBEGK5oqZv3I3LL4JiXrw5c3P/3PTiZuh+7Us5SFHcw0fvcxjjZ3nrbhk8bz6D6QGQ/IMD+16sTHeun6DEO/ElV/q3JJQHkEQIl02e9WKrRdw//jsxEJRxJVfQnglF4VI4ILG4d6F3x57QErhkhJAW8vqCqpz0z48xy9lFskn69PWKvHhjV8nBMIsnxIsWTIEUHfgzDHF9YvneSXz8pRsEFDcu9JN+3dtxZVfsvyWVdCe7mLwyCczCI6FO1iJmti8RlY8tCAcrrr0bP3Ct2Xp7/ZKtvpSEgJAm3f4Og+2cKGDpVoA0ug2HgoUgIc+nA0YHq7ngU4aIhvEJKCRQgH3Viw71NaxHe3DIIXJkhCAv3bcRi6wt0oKg7AMeRE4HnaCB9bPAQHmq2a/KAo9JAAEeZVj6ZIg0HLIV13RMWqDFMJyJgD/lsdehYt6zpDCGCxDXgQ4gQSPfzoDdMYGHpvQQwIheQ3A0iVDYAPci2HJS5tezVVgTgQQ2vncd9n2T+blagSOrwwCv9w2CaC+f6oLbbEucpFUj/F9lSGwbnv7vMdf23Z1LmZlTQCRbaurY62fvCQKeJVYLhmgVNyPjlWBv+wfeim/yMcAPBxVKbOwnhwQ4KDTFiSBXy5d01KUrZisCSAe3b9eZLos2SrG8ZRDoDXiACs+OytthQIHuwJwXABf6kegIxC3tLaF1mdraVYEENj6+K853x68TDRb1BWMh/r9j244B4TZDNb2oJkBRAL40gQCn+3tqn/wN58/l42xGRNAuOW5rzPtn34vG2U4jvIIDNXvT2URHg9IhYw673+wtf1WtJIzU+sy8gQUm2+mu+NkBx8+KpkjQqYG4/DpI7DXVwTuev9iIOTg5Uua4ZmrhCRTzukbjkNmhQD0FPQXlthLX7hlatqDOBm1AAL0qN/iyp9V3igeiYeVftXnZ+ZU+ZHRIqepsy4Vx1lNCqGnYEGJhXohE5vSJoDYnudq4b79V2YiHIfNHwJv7RsL9nZnPTh8yvBEVwDNDOBLEwh8uqvzmhVrWurSNTZtAogHjv4Nb9+dLqz5DdcesYPf7GyUzAiRj+JZAcnQlFdQAJ7XsLctlPZu0GkRQHD7M7cxXVvr5TUdS5cKgZ9vmQJinIQHLKFZAR47CEmVP3LLQbMC//Xq1pQ7P/XVP+QgINrTjxR2tQqx9oH+o3KnBMvPGIGPjg0HD39yXsbx0olA0i4AyAymE9MRisPIgkBlkS06rspU/sQNM+FKr9TXkC0Ai1tciSt/agDV9ASd0/eHXQ2ymZToCuBLEwgc74raTJRj5VDGDkoA4t4FFqZ711VDCcHP1YHAx8eHg32+QtmMQQOC2E1YNnglF7z9kH/+gpV7B/XWHZQAArERT4l4Xz/JM0YugWv2eOUSfUounhGQHWLJFJyArYACT+ipwQSmJAB0mAfb1XL9YJHxM/UgsKWtDOzuSr3STypL4alOyDlAKnFYjswIbD3ov26wzV5TEkCo5eml+O0vc+5IKP4VGfv+/c0UOTwW0B8Ttf5GrYBlv9+2NJV9SQkg8fb377wrVSR8X10I7OwsBts6yhQzqqcVgPcRVAzwHBVtO+i7M1UrICkBBFueWQQP9MD+/jkCr1T01/dMUErVKT14RkBxyLNWiFyE/+v3LYuSCUhKAGKs9bpkgfE99SEQhQ4/n7dXKG5YohUAZD+7UvF06VXhl13hpHV6AAEc+WiFjfXtHnrrGL0ipbF0/ftotbRef+mmHzkdCEy6oXG4PCMANxIdt3DFRwOc+QYQgMdNLsE+/3nOrQzUv3u4NoPQ0gYVeUwA0iIqn7QYI5CFFc4l/TUMIAAufPi6/oHwb3Ui4ItbFR38649CwjEIdwP6w6La3wdPhAbU7dMIILB11Xg+uL9atSnAhp2GwPuHa/KMCFokJOvx9XlOn77U7zoSrH5iTctpA0b9WgDh+/Auv9rJ9HePjMq/sXgcIP95kKYFvCAQgRjzo77BTyMAOPX3/9KUhYPlGYHDATc4IKPff7rJS3QD8A7C6cKV93AHjodP29TnFAGgZb98+Ij8vqR5h0AfBmxV0PFnSMTEtLegG1IUDiAvAtAnoLjv4aKnCMDqsV4L2XzI/QHkNQ9LTxeBTa2V6QaVPVyPT4DsarACCRBgOYGgqfg1vaJOEYDABS6TQD4WoQACaAp+a0e5AprSVJGYDcCXVhDoDsdP1fVTBMCHj0/TSgKMbud+vyezgz5kBgwdLAqnA2TWgsVLhcCxzujkXlkJAkDn/PGRw3ADeHxpAYFt7Sp6+58EDHcDtFByemxE4wBPvblzJPqVIACeYG+E/hy4/6+RPGxuU0///xRkeI8AjZQeANA4QDDKJvb6SBCAyPjnaMZ6bKgk+/1LDWOPV6DUUrE8uRDoDrGJOt/TAmD9+XYpkyudupPbGbOCIDPoNm/5SXPCFwCvDswP+Jlr9YXiiTp/sgXgK81cBI6RDwSOQgcg1V54IFC1WdPfsK4gk6jzJDrwE277be0fAP9WJwJHQpgA1Jkz2rKqtTtmvfkXzTQZdkyZI4o5HB+rrXRr3tqjQfUSAFxHonl8jZIAAdb5MaWOqSTc2ukcoyRaD+lUdQsAoHEAfGkFgXiMPxcSQGSSVgzGdgKg5hYAdgbSVgkNxZjJJM+EarVltrGtbYs4VAsA7gKoNmuSGhaMcuNIAnB4ADApPOq7iaYA1X/hqUD151GPhQwrOEmBj6v3laIVJBWyk+UphTTloAatVMKXJhCIcbyDBDw7YKdQTVhvQCMZLRCAAfNFq0mOM4KNBEJMhW5lWoVUXrvDLC2vAkmk45kASWBUQAjcIsxEwlVcGmhXKoCGBlSEWbP6rcRdAPXn0UkLOV6kYAuAO7UngGYsN6ih2mgBGDRzNJjsSJyjkSMQbgFoJPPimhgDwIOAGilOIBLjKdgFwPsAaiXDGEELXI0JQCvlieUFgiQoOx610UiOuWgtHMWF95XRSHECDgslkARJYQLQSI45aC1sv40JQCPFCZhMJCQAk00LpUormMpqJ01qYLUdgQlA1kIgoXC7xcSSgLTiw90kBFVOUWZKAwSAt5aUswhIKtsCDwggAUVHJZWKhcmGAO4CyAatIQVbzGSUJAgKdwE0kv0OswYGAXEXQCOlCQCriQrDQUDcAtBKjtlNWjiBB48BaKU8mWgyRhK085BWDDa6nTZIAIVW9fbYCAI7lWqpjMJpwGNwDMC6X0tGG93WKmdQvRAQWnBUUi98SlvmtJi2wjEA2walFWN92SNQ7ghnH1numLgFIDfCksq3mKlPSI6g35dUKhYmKwJVTr+s8nMSjlsAOcGndGSCIDaSRd5bDpO0SwujS0rjo0p91a6AKu1CRsEZJdXahg07HYECB80tmec9nBi1Ia0lPgyQNhAos6u5C4AJQBulCIDSAmuizvcQAO1q14rhRrezEo4BkIRKV9zhMQDNFM9Cp/noKQIAtHuLZiw3uKHIG7DGrb5xAII0GTxntJX8Aju94xQBkJTjDW2Zb2xrG0ta1QcAgQlAfZmS2iKXnf7TKQJw7lj3Z8JchBcFpcZLVU8aS9VHANCjVFUYYWNSI1DitjA/nO/9igCIea/ztLPqQOoo+ImaEJhY0g7X3OU+DiBCKQL8cPDDn/wf3cvqwl2ArGDLR6Sacgd0/usZSPqq3WYpXAuNqc+HQVhnZgi44aKgUR4fOOArTBoRVWq0ywv67q3Y6HeiwkPeSKeSI4JBVIDW9qD/KfhBI8Zkn/97Sain/58lcSRNAb4pJwLFbvPaXvmnCIA2uX4L15p9X07FWLY0CLDwNPe60naw21d8spL3VPZEhZfopHdU/RNtjMQf1EoYeKEQ8Gw5QIkUoHgWUJAtKDgTAN1LIVFgQhiImDruFDitv+215NTqDXv9rR+TlkINrDdVB4j5sEKEFe4QbwPv8KWgtUgAYVjxIvAThx9WhIc8SVT5000bIgmkk4FnAUQ5FoRYBn7iif/jAg/JKfduSrq24HDpIVBZZIsuuqL+497Qpw3dmlyjtjLx7qnpicKhlELgqGABa7lS8AFfDDrEkwc5wda/aIINe04Nzjdfve15SAY8D9sL6AMvE0kCCxwfsFAm3CZQqsAMoqemzH7alP9pBECYy56Fcf97kPj4kUIIBAQT+DdfBNbCt/0+Ifn5rbaKIIge9ShkUQo1Q7T0OUEAnMCAMMcAM0kliAB94ys/CFQU2Z/vq/m07IPkTXStuy4ixDu0cA51fhCUUSvq22/gPWCdUAo2cQWJAbzBrli7A3Q3jxgsiPzPEjsADW5nfyNQlN5WgQl7D/aHR7bf0P039vay2fbeGQCk6LQdHGDGiKaC0etkswALTonAdt4NfhIfB55kxoCNnGfIyo8EWYojgDQnG55LqUaGB5lVfmQAOj4wBrsIfiYGQrBlIODzBGXIl4Ei60e4Yd0+3Y98gPsWZSl7Eka9eGB0fEcOBFDFf5UdBloEd8biCVIE1ko/iBwqzjiuJBEk2P8vDokAfVDXwE7RiRkEfMmBACGWuK0P95ecFO2u9TcH+cgxZ//A+Ld0CORS8ftawfgtoPOjWukMy0RSFs3/ocRjIhgKoeyejyx3+tbcf+4Ax5EBLQAknnKNehsSwPzsVOFYgyHQJdLg12wNWM8VDRYs7WfmgjigHHHAh0/ODqQdM8eAiVdH0vdHToJRa4CBH5uJBjbYIsCXNAjUVjj+N5mk08YAegOQ9sJlBGXGk7jJEMvyHvLAe5stA7fHGiWr/L2m2EfkYzsH6St/b3pQwYtAXwIfEwWciE+uy7LInYpmNlFiSZFlWTI5SQnANebWHSaP99NkEfC9zBHYL9jBovhE8Et2JIhCpx2pL0d1NyAtSh/vIB8B9OKDfAp6Bwrx2yj7UjN5dOGn937Tm1j+2/9KSgAokMledRNB0Rj3/ohl8Bt56b3A1IBFsYngACQBuS6CEoFjVKdc4gfKVXigDnULupkI9C7M94zHQCjUfge9/YeVWG5KZWdKAnDW37LN5JmIWwGpkBvi/nHovbckNgH8nStXxCHWAbsByrUC5H/794cXzRQmXI3htCF+K/VHJ/Vv9PZfMq9xW6oQKQkARcCtgFSwDX7/A74E3A3f+kdE2+ABJXyqWCtA4bd/f4hQa8APxwZ4PDbQH5oBv4d6+6MIgxIAbgUMwHTQG3Hoyfc0Mxo8Ha8FMbiAVulLmVaA8m///jj2jg3gLkF/ZE7/PdTbH4UelABQAMpafgNBWXCra3CswWHBlujrf8DlySkH2odaAc7RMo4F5Pnt3zcLUIFEXYIgXH2IC+fAwmmlYd+/zH7DwCen3xmSAFze21vokqlrhhJk5OfbBRf4YXyCok3+VHjbR3QDk1OG3d1kmvdPlY507zNw2XGAjUESwDTQF7MZE0rWLJnrbRkKxyEJAAlwswevIW3lKt6Qfqhkyvf8Q7hib1lsfGJdvhou9JJ2jZdjz8D8N/1T4YtWHKLpQrymoAchtOa/ixWuSYVX3/tpEQAx9QWWLmxclo5AI4V5F67R/1m8DrAyeMTlgqO1NAwsZRIeIqrSt39fjNC4gI/FjkMIkzPHFS1+4ZapaTmGZETr3RvuPsT59+R5/WkuVUO6uGgBz2tslXQCJZbER2nQtq4W7hWWFscPrl0Gn//BFWb/FBVoF20FNNyIxIhX06jCfS/eddaYdNOeEUpmz/i5cANIQ3e20Br9Z5lRqq78KPMpGwuctRIMCGqo8qN0o8KJxgTQ2IDRLquZFOqqHN/JJN0ZEYBj3M0bzSVn/i0TBXoL+wozHPwLNv21cLnGdADKnus2jxk1ElUDC5odYOHYgJGuGeNL37xvbkNzJmnOiACQYNeezd+i3bVyjDJlYndewv6VrQBvcsPyojtbpZ6mY3CyN8tGm4qm/bJJfxC2BIyymGjMcHfbfte+jFfwZkwA6BARyjXxAtJkN1Qbax2c3/81q73hD7MnClxjs+BrjTX9kxFEb3dA77MD8Jw/rrGudPbr8+ZlXCczJoBEK8B7c4u57OxHk4Gux3sb4T59K5lazc40O0d1A2t5BrMCGhj1T7ecoTUEftgS0PMW5bOayhbed8XYneli0jdcTh0832cPfcJ2fj49G8VaibMX7sj7YLwe7n2fFVeqJpkCS4KOD0cBPmoe2iYdvP37JxIdWlJgtqlswra/lZn/PmtcyYaVPzjzrMxj9sTIqVTHTO4LKEd1PnajyDa9GcULQeee5XCeX+uVHyWapAXgmZTGeIAOKz9KP/ITQIeW6OmqKXP4qBg7J5c05UQAFU2LwtaipktJkyPjvkcuRisVdxVs9rf3HsShlFIZ9aDxAPdgXoI6rfy9kKKpQbQbsR4up9XET6svvfSpu2dEc0lPTgSAFKMjxUzlM68jSKuu5lzQiP+n/IA9FHPBWhVxHTXdwF6TxD9A55W/F3x0QAlqDWj5QvP9F08Zdm3fI76yTU/OBIAUF3gX/M5SOesueEa8tpE9iSLq97/MVmeLqerjuevbgG24/ys7dTTolw74aHpQqxdtIsWvTa68Y8k87++lSIMkBIAMcXkXrIIksJQgTj94QAojlZTR2+8f6lQeJW2SWhd62RdMPN6zXiBR+SUrBlKbKou8xHgAbAlo7UJ165Ipwx564DuNq6WyXdKcd3nvWmYum/k7qYzLhxy99ftTYYgOFSma3Apojz76xKnSmep+4kASje0xeOGk8pcf+m7DI6nSlM19SQkAGeBuuu9aS9nZf83GmHzH+QQeyaXHfn8yXAl4QCdpdYLis+D+Aa60Fo4lE6Ppe2g8QCt91lkN5X995LozrpcacMkJIEECkx64zFJ+zh/hpKtW8AVR2AxG23Yb4YILugBBo6PICEBZBFA6sxO2BLTXJM41r9BYICIBdV+EeMGk8teW3zj5MjnslIUAkKHuph/OtVTMeVIrqwdfYapAp5iGk4wcuaCgTDhQe6ry96ol4RkwJed0QW9B7Q6OZQsh6gqoddEQTZHipVMrnnjs+slXZZu+oeLJRgAJEmi4Z5Gl8vw71L6n4FHBmti+W+8XzAdY+V1Jk4lWeRdNQ1OEkaTP9XwzzKnPQchmoYRvTBt229JrJi2RE3tZCQAZ7vLe8SxdMftagnaqdrTpeWYk9BXPyStazjySRDZhgm6wJsegsghYGgon+YFrXAbrBgaVqI2HaFYgyqtnHMRtp/mvT6287P6rGn4uN4KyEwBKQMJPoGLWRaRVffsKvseWZHU0t9wZI6V8knbAHYPTP6PAPT4ECpp06+GdFNooPItQDasGhxXbwl+bXH7hknkNbyc1VOKbir72ug8+5QGdbR9yXdsmSJyOrMShuf4FsQZwHHYB9HgRBAWb/PCUd/idzcV006D7Mw/gwkkPkc5GpKrjWCkTcJjyNw50xuii3ZVFRdOWXj0moBRQihJAb6KC2362Ot76ya2iEFOkBZIKTPT2X8XWpnqs6fvwdOeTTf7csljgCNC9qQDEjqffgtAqcAgpj8UG54NywyzT9Fuga+/5DeXP/uTaSXdmGjfX8MqmtI+1wV2r57Dtm9/io8fhK0r5C81P3gaP6tbd2x+6+cHNWqBzn0VSUMOHbMC3rQAuq8tbkZE0PamE2Sga2E10qseS30dN/rPGFV26ZH7jOsmFpyEwr7kpwi6Bv7NjLdu1pSkNWyUNgpx+fsqMlVRmvoXl2uQfyn7WbwJdqEsQVK6CDGWT1M+Rm3Sh2a5IG2D6+JLm4cUE7O9P7bMwQ+oUDS4vrwTQa1qgZeV/QhJYKURbBx+mHjwtaT9Fb/97ZT6yO21jpAgISy0a5CMo+ccyBE4E4YNOENgNG258XntwUiCXVAZqAaCWgFxXJXzrTxtXfMcD8xtekktHunJVQQDIWHHvAkswXPlqvLP5csAzstq1iS8AD8fHpYuRqsMRJOrrwyY/msNT8OIiJPBvhWMDrfKTjoLJSqhCrYAi2AqQ+jLDlXzneMveioSc81fdMUYVzgeyVrRsAPRte36qGN79JhfYK9upG4/Fx2je55+AFT4xrw89+/J5xU5YgA8SAR/NbqYhn7YPphvNBqBZAakub03B0fEjXN/KdNtuqfSnkqM6Aug11L/9qYd4385FfORYcte1VCka4r5PpMGN0UlAs8t9E819a0bz+kNAkvNjtKguuNcJwgfsQOT0QQToZCE3PGEo16u61BFsHOVZ/uP/aHw4V1lyxFctAfQmNtSy8h42sHcxFzxYJgUA/2DLwC80uOgHvfHhWe2w4qPRfXVmG88SIPKFDYTgGIGggxZBIdxElEzslJT5NRbu018/wv2zB65qWJ55bOViZJc65ew7pSmya/XceODQo5x/1xggZr/72IPx8aCFRyvhtHGhZbsJLz7Y19fKhQ7kiR6GRLDfAbhQfrsouWCW6WAgIovGWs++0RWuH943z/tGLrqViqsZAugFJLLnF9PZ4JdPc4E9ZwpsKKP25gm4wef3o4rPOGaVl4lVe2hUP899/KyM7xMpetyS6BrEO3JvTudqS6bxKdjq8piHtttlo3lvjXsjbO7ftWiy7mKtAAANwklEQVSud0OmevIZXnME0AtWYtaAqVsoRI7dAAcMR4tpzByo/URf9LZHDjxqbuZnW1g56PQZO2oF4aM2wPm105pBBICIoP9lNlFifbV7/4gyx0ttHdYVahnV72/nUL81SwB9ExZqWV0h8OFH+NChb3KhQ0WpEn079Pz7UmV+/z19e1jpURM/S5/9VOlV6302QIHwEXuCEPiYdCPtcqS3v2dgbaWra3SF8y/wOK77F8/znpBDp5IydUEAfQHrbvn5GSYhdAsfbb8IEsJIgQsn6LtVMINbY5OUxDalLrQjD2raG6nSJwNDhMtwWZ8ZxNrMIN5mBUwXGi9QV5GkIS/PrB1+YFix/R27jVq1ZK63JVlatHpPXWhLjKLYfDMdtDVcLTLd3/lrV3jW80FHXtqeibd8osLDAp7o0+sa9qxzUYD+X7E2S+IThx8hntEQT9Z6+0YU4abWdAELd0eKA2tpHJgLWXBF7cQZC+tnfyyJApUJUXf7K0ewiKkvoF0efo0+t3z0+iGSaR0BRHiIEZxFEE9+J36joyPRzEIOB0YkKnniAwstctI5+d3TrMcVPp2sRFuT2atiiQ+6uBgBeLgUmYuY4DcFlyVTgIf/o++cyAFWcpODAxQ84BodakXZuZ5v+D8NPwR1+laWoVj8GmgOJoB0MlGVYURAHH63e3jCtkTFhFNr4PTpqZ4qCjM+QQInP4npRhHe6i0Q0AknMS8MP4lvVOFP/lZlwrVtlMkKK6qVBZbi5Lv18HBgUYC+B+jgUxG2HgQO/mbg//AegNueo3NqCLOQ+EZnIxLwg/6nINFkcnUwkdmZhNdSWF23AHoz4smW9674C7cjjfZkb8U+GfPki/vkl5by1RC2UvA0up71T/IeTXk45ButV0AHzm/oMKV+hrlSh8nCSVIIgU4mbF6x84OLFVKnqBpDEMCxqP88RVHFynSHgC8a/U/dJQomyBAEcCIaKNVj5uE0KYeAn402KqdNOU26J4BnWtaPCLBxQ4x1KFdsjKepm4lU6jHVuicAVmTn6DHjcJqURaAtGtLOCrIMoNE9AURZZnoGeOCgGIGkCER4llzRst6b9KGGb+qeAIJcXHeZpuHypmnTOZGdrekEJDFe9wTgZ+Mjk6Qb38IIZIxAnGV09zLRPQF0M1E8A5BxUccRkiGgx9ak7gmgKx4ZekeHZLmN72EE+iEQ5JgRegNF1wTwePM7BQw62wpfGAEJEGAFXtrjliSwKVcRuiYAs80m29biuQKP42sPAfgy0d0BibomAILkdDl3q72qow+LYzxuAWgqJ+FiUEnPFNBU4rGxkiPA8nwaK0olVyurQF23AARe0KX7pqwlAgtPiQArwg0HdHbpLkF984cDYrnO8gsnJ48IRHidHHvUB0N9EwDPYx+APFYYvanmBJ5AM0t6SpeuCUBPGYXTghGQAwFdE4CJotrlAA3LNCYCJpISl0y9yK+n1OubAADRqqfMwmnJLwJ2yiTv5oN5SJ6uCYCkyON5wBSr1CkCNGHK/lRalWKiawIggBhUKe7YLA0iQFMUbgFoKd9EwRTQkr3YVnUjYKWouLotzNw6XbcAmGj0aOaQ4BgYgeQImElTNPkT7d7VNQGgEVsLZcrsGBjt5iW2XGYEzCTVc2aZzHqUFK9rAkBAllqcYSUBxbr0i4DTZD6it9TpngBctKVLb5mG05MfBFwmi66OBkco6p4ACmjLF/kpLlir3hCw0eYNekuT7glAj6ytt0KolfTQBP2+VmxN107dE4AeWTvdzMXhpEPATtHCnd6Zh6WTqA5JuicAPbK2OoqOsawoszl16VOiewJArI3Y21jFFadWagQKzXZdupXrngBQQahxFmGHIKlrhMHkFdC2rXpMsiEIoNzq+liPmYfTpBwCHpvtJeW0KafJEARQYDa/rhykWJPeECg2O5i762f9U2/pQukxBAF8sqPjz06TRXcrufRYINWYphFOz3412iWFTYYggNfnzeOrHZ4vpQAMyzAeAiVm+1q9ptoQBIAyr9Lmek+vmYjTJS8CTqvlt/JqyJ90wxBAgdX6Qv5gxpq1ikCFzR1dWD9bt4PIhiEAlIkoM7VaELHd+UGg2lGgy+m/XjQNQwAowaNdxf/OTzHCWrWKwDCba7lWbU/HbkMRQKnd9SggCLxBSDolA4cBVXZP6J6J5/9Rz1AYigDurj/vg9HOok49ZyhOm3QI1LqKdT9wbCgCQEWjxlH4N+mKCJakWwRgS7HUYtV18x/lneEIoMBhe4IiSdwN0G3NlSZhqKV4p3fOemmkqVeK4Qhg4dhZO8e6SnW3t5t6i5g2LTNKS9FwBICK42h3yRPaLJbYaiUQcJjMvMtk+5ESuvKtw5AEsHjinNVwSrAj3+Bj/epEYFLR8H/d0zDLEK1EQxIAKnb1noql6ix+2Kp8IoDe/iVm5435tEFJ3YYlANwKULKYaUeXkd7+KFcMSwAo8bgVoJ2KqYSlRnv7G54AUCtgpLPQp0ThwjrUj4DR3v6GJwAEQKNn2A/VXzSxhXIjUGRxMJUm+w1y61GbfEN3AVBm3Nsw5/mGwsp9assYbI+yCEwtrlp5R9Mcw20ea3gCQMVsTGHxd22kCW8drmydU4220e7StgebLlqkGoMUNAQTAAT7rnGzN55ZWoPXCChY8NSiiiRIsbGw7D/UYo/SdmACOIk4E2GurrS58VHiSpfAPOubUjz804UT5rybZzPyph4TwEnon5h5efCMkqplecsJrFhxBODR8Xy53f1NxRWrSCEmgD6ZsWTi+U9M9FQcVFH+YFNkRODs0prVi71zTsioQvWiMQH0y6LRztJZxRZ7XPU5hw3MCYEziobvfLDp4jtzEqKDyJgA+mUiWgQyo3TUjSaSwnsG6KCAJ0sCGuupcdpmJntmtHuYAJLk+KKGOb+bWTpqTZJH+JbGEbBQJvGs0hFX3u29pEvjSZHEfEwAKWBcNvmSq7yeikMpHuPbGkXgnNKRLy/0zv67Rs2X3GxMAINAWucsPbfAbGUHCYIfaQiBCQXlh5eeccn1GjJZdlMxAQwCMRoPmFUx+noaNhsHCYYfaQAB1O+vL6g8VwOmKmoiJoAh4L7XO+eViyrqliKPsSGC4scqRaDU6oydXTFyxp3emYdVamLezMIEkAb0SxovXHZ+Rd0qAh8qkgZa6gqCjoU/r6zmorvGn6frI76yRR0TQJrI/WjSxXfOKhuNZwbSxEsNwdACrwuHjb3WCNt7Z4s3JoAMkEMzA2eVjFiXQRQcNE8I0NCP44LKujvu9s76fZ5M0IRaTAAZZtMTZ142Cy4g2ZJhNBxcYQQuqhyzdHHjhasVVqs5dYTmLFaJwQ9s+p+3/9164FKVmIPNOIkAcvSBlf+2xQ0X/ByDMjQCmACGxihliKVb/vni2uP7bhBEAeOYEiXlHrhpKz+7ou6aeyfO/oNyWrWtCRfcHPPvsW3/euCdY3se5gQeY5kjlrlET0z1FY/62r2Ns/AYTQZA4kKbAVipgv50679uX9u6/+kwx1CpwuD78iFQ7Sj0Ty4dMe2e+nP3yKdFn5IxAUiUr0+2fHDZxo7DrxyL+J0SicRi0kAAuvceGl02bNqiunPa0giOg/RDABOAhEXiqc/f9xxkfB9u7vpygoRisagkCJjhYN/MslG/Xjrpa4bbyjsJHFnfwgSQNXSpIy7b8s7qD0/svzUqcHiaNTVMWT9B/X3ojzF3UcP5b2ctBEdMIIAJQKaC8OT2tXM2dh55C3cJpAUYnt6zu9pqP29R09dwk18CaDEBSABiKhFPHXzfc7Qj8I+NHUempwqD76eHAPLpn1E2chXcv39hejFwqHQQwASQDko5hlm+7b15m7uPvXgk7HPnKMqQ0c8ormoZ6Sm+bOHYcw8YEgAZE40JQEZw+4q+cs0ayju24OVP2r74ToRn8dhAGrijNfxTiqvuWNxw/ktpBMdBskAAE0AWoOUSZUXLeu+BYOuft3Yfr8tFjp7jmkmTeHZZzVs+pzh/1ZhL8Q7NMmY2JgAZwR1M9PLta2/aG2j78S5/2/DBwhnpGdp5qdFTsaXWXXLTgvEzm42U9nylFRNAvpA/qfeplrVf3x/sfGa778QYQTTmpkNogK+xqPL9KnvBbbdjbz5FSyQmAEXhTq3s6ZZ/Tz8S6XoGdg2mxXnOEPlSYnHEG4uGveGmXXDd/gy8TXfq4iHbE0MUNNnQk0Hw8i0fjAqLsYd3+Vq/eSwacMigIu8i6z3lR0c4Cl95oPHCJXk3xuAGYAJQcQFYsX3t/2+NBRfDcYLp3UyUVrGpQ5pWbS/017mL3y4zu398m3fGviEj4ACKIIAJQBGYc1fy0+3v3/VlqPvmfcGOcSGO0cQ0YqnVER/tKm0ut9l/fI/3/H/ljgKWIDUCmACkRlRmeTc3/4IeY667uouLfedoyHfm4bDPIwJ1DB6i3XhqXcVfVlidaz1W23ML62d/LDMcWHyOCGACyBHAfEdf3fJRXTcXWnAiGrqkPRYa3slE7IxCg4gu2sLDk5SD5TbXrhKL6437GuY8mW88sP7MEMAEkBlemgj95Pb3muD+RNPjDDspIrBjA2y8OszFi6McZ43xrDnMs6ahSMJG0YKdMnN22hS3mcwRp8nc5jRZD9pM9E74bBNNUevhXP0xTQCCjUyJACaAlNDo/wHySqSAWB0X2GEEIBgTSR4zA/owHqTTf973pvD/AB595eb2VqxTAAAAAElFTkSuQmCC;container=0;" parent="mYAJtaAo5jHIqQ0BVKnQ-50" vertex="1">
          <mxGeometry width="58.18" height="55" as="geometry" />
        </mxCell>
        <mxCell id="mYAJtaAo5jHIqQ0BVKnQ-52" style="edgeStyle=orthogonalEdgeStyle;rounded=0;orthogonalLoop=1;jettySize=auto;html=1;entryX=0.982;entryY=0.464;entryDx=0;entryDy=0;entryPerimeter=0;exitX=0.579;exitY=0.025;exitDx=0;exitDy=0;exitPerimeter=0;" parent="1" source="mYAJtaAo5jHIqQ0BVKnQ-46" target="mYAJtaAo5jHIqQ0BVKnQ-29" edge="1">
          <mxGeometry relative="1" as="geometry" />
        </mxCell>
      </root>
    </mxGraphModel>
  </diagram>
</mxfile>
